<?xml version="1.0" standalone="no"?>
<!DOCTYPE svg PUBLIC "-//W3C//DTD SVG 20010904//EN"
 "http://www.w3.org/TR/2001/REC-SVG-20010904/DTD/svg10.dtd">
<svg version="1.0" xmlns="http://www.w3.org/2000/svg"
 width="512.000000pt" height="512.000000pt" viewBox="0 0 512.000000 512.000000"
 preserveAspectRatio="xMidYMid meet">

<g transform="translate(0.000000,512.000000) scale(0.100000,-0.100000)"
fill="#000000" stroke="none">
<path fill="#c70101" d="M2321 5110 c-497 -48 -988 -250 -1376 -565 -121 -98 -334 -318 -423
-437 -266 -355 -429 -748 -499 -1198 -24 -161 -24 -539 0 -700 45 -291 116
-520 241 -775 139 -283 286 -484 517 -710 393 -383 866 -615 1429 -702 161
-24 539 -24 700 0 450 70 843 233 1198 499 119 89 339 302 437 423 237 292
430 685 509 1040 49 218 60 325 60 575 0 250 -11 357 -60 575 -79 355 -272
748 -509 1040 -98 121 -318 334 -437 423 -352 264 -750 430 -1188 497 -126 19
-468 27 -599 15z m370 -1326 c77 -23 126 -50 189 -103 170 -144 1272 -1161
1307 -1207 60 -77 85 -151 91 -261 3 -74 0 -105 -16 -160 -69 -227 -301 -372
-532 -333 -143 24 -163 39 -680 513 -260 237 -476 433 -481 435 -4 2 -228
-198 -497 -445 -306 -281 -508 -459 -541 -477 -146 -79 -345 -74 -481 12 -159
101 -249 293 -222 475 14 94 66 197 134 266 120 121 1293 1189 1344 1223 108
73 263 98 385 62z"/>
</g>
</svg>
